<svg t="1644728024746" class="icon" viewBox="0 0 1025 1024" version="1.1" xmlns="http://www.w3.org/2000/svg" p-id="2740" width="200" height="200"><path d="M514.161 25c160.298 75.201 287.953 116.18 382.966 122.934C912.831 149.05 925 162.115 925 177.858v371.317C891.851 768.537 754.518 918.48 513 999c-244.637-80.823-381.97-230.765-412-449.825V199.823c0-27.328 20.78-50.176 47.986-52.762C244.72 137.963 366.446 97.276 514.16 25z m220.443 337.47c-13.897-13.96-36.398-13.96-50.259 0L460.7 586.895 343.655 469.447c-13.861-13.925-36.362-13.925-50.26 0-13.86 13.925-13.86 36.522 0 50.447L435.57 662.565c6.948 6.945 16.02 10.435 25.13 10.435 9.072 0 18.18-3.49 25.13-10.435l248.775-249.683c13.861-13.925 13.861-36.486 0-50.411z" fill="#889AA4" p-id="2741"></path></svg>