<?xml version="1.0" standalone="no"?><!DOCTYPE svg PUBLIC "-//W3C//DTD SVG 1.1//EN" "http://www.w3.org/Graphics/SVG/1.1/DTD/svg11.dtd"><svg t="1636550154293" class="icon" viewBox="0 0 1025 1024" version="1.1" xmlns="http://www.w3.org/2000/svg" p-id="2637" xmlns:xlink="http://www.w3.org/1999/xlink" width="200.1953125" height="200"><defs><style type="text/css"></style></defs><path d="M840.32 954.24 183.68 954.24c-10.88 0-19.2-8.32-19.2-19.2l0-10.88c0-71.68 25.6-201.6 72.96-259.2 35.2-42.88 81.92-76.8 133.76-97.28-32-19.2-60.16-44.16-82.56-74.88-32.64-45.44-50.56-99.2-50.56-154.88 0-71.68 28.8-138.88 80.64-189.44 51.84-50.56 120.32-78.08 193.28-78.08s141.44 27.52 193.28 78.08c51.84 50.56 80.64 117.76 80.64 189.44 0 55.68-17.28 109.44-50.56 154.88-22.4 30.72-49.92 55.68-82.56 74.88 51.84 20.48 97.92 54.4 133.76 97.28 47.36 57.6 72.96 188.16 72.96 259.2l0 10.88C859.52 945.92 850.56 954.24 840.32 954.24zM202.88 915.84l617.6 0c-1.92-74.24-28.8-183.68-64-226.56-40.96-49.92-97.92-85.12-160.64-99.84-8.32-1.92-14.08-8.96-14.72-17.28-0.64-8.32 4.48-16 12.8-19.2 44.8-16 82.56-44.8 110.08-83.2 28.16-39.04 42.88-84.48 42.88-132.48 0-61.44-24.32-119.04-68.48-161.92-44.16-43.52-103.68-67.2-166.4-67.2-62.72 0-122.24 23.68-166.4 67.2C300.8 218.88 276.48 276.48 276.48 337.28c0 48 14.72 93.44 42.88 132.48 27.52 38.4 65.92 66.56 110.08 83.2 7.68 3.2 13.44 10.88 12.8 19.2s-6.4 15.36-14.72 17.28c-62.72 14.72-119.68 49.92-160.64 99.84C231.68 732.16 204.8 841.6 202.88 915.84z" p-id="2638" fill="#bfbfbf"></path><path d="M147.84 844.8 19.2 844.8c-10.88 0-19.2-8.32-19.2-19.2l0-8.32c0-58.88 20.48-115.84 58.24-161.92 26.88-32.64 61.44-58.24 99.84-74.88-23.04-14.72-42.88-33.92-59.52-56.32-26.24-36.48-40.32-79.36-40.32-124.8 0-51.84 19.2-102.4 54.4-141.44 34.56-39.04 81.92-64 133.76-71.68 10.24-1.28 20.48 5.76 21.76 16s-5.76 20.48-16 21.76c-42.88 6.4-81.92 26.88-110.72 58.88-28.8 32-44.8 73.6-44.8 115.84 0 37.12 11.52 72.32 33.28 101.76 21.12 29.44 50.56 51.84 85.12 64 7.68 3.2 13.44 10.88 12.8 19.2-0.64 8.32-6.4 15.36-14.72 17.28-48.64 11.52-92.8 38.4-124.8 77.44C57.6 716.16 40.96 759.68 38.4 806.4l109.44 0c10.88 0 19.2 8.32 19.2 19.2S158.72 844.8 147.84 844.8z" p-id="2639" fill="#bfbfbf"></path><path d="M1004.8 844.8l-128.64 0c-10.88 0-19.2-8.32-19.2-19.2s8.32-19.2 19.2-19.2L985.6 806.4c-1.92-46.72-19.2-90.24-49.28-126.72-31.36-38.4-76.16-65.92-124.8-77.44-8.32-1.92-14.08-8.96-14.72-17.28-0.64-8.32 4.48-16 12.8-19.2 34.56-12.8 64-34.56 85.12-64 21.76-30.08 33.28-65.28 33.28-101.76 0-42.88-16-83.84-44.8-115.84-28.8-32-67.84-53.12-110.72-58.88-10.24-1.28-17.92-11.52-16-21.76 1.28-10.24 11.52-17.92 21.76-16 51.84 7.68 99.2 32.64 133.76 71.68 35.2 39.04 54.4 89.6 54.4 141.44 0 44.8-14.08 88.32-40.32 124.8-16 22.4-36.48 41.6-59.52 56.32 38.4 16.64 72.96 42.24 99.84 74.88 37.76 46.08 58.24 103.04 58.24 161.92l0 8.32C1024 836.48 1015.68 844.8 1004.8 844.8z" p-id="2640" fill="#bfbfbf"></path></svg>