<?xml version="1.0" standalone="no"?><!DOCTYPE svg PUBLIC "-//W3C//DTD SVG 1.1//EN" "http://www.w3.org/Graphics/SVG/1.1/DTD/svg11.dtd"><svg t="1636551443936" class="icon" viewBox="0 0 1024 1024" version="1.1" xmlns="http://www.w3.org/2000/svg" p-id="2683" xmlns:xlink="http://www.w3.org/1999/xlink" width="200" height="200"><defs><style type="text/css"></style></defs><path d="M587.58656 750.78144A101.9648 101.9648 0 0 1 486.7072 758.784l-213.71904-100.62336-123.88864 64.5632a20.43904 20.43904 0 0 0 0.73728 36.608l354.24256 166.77376a61.17888 61.17888 0 0 0 60.52864-4.80256l307.23584-209.4592a20.43392 20.43392 0 0 0-4.07552-35.92192l-108.3648-42.2912-171.81696 117.1456z m176.62976-159.11936l118.3744 46.19264c31.50848 12.29312 47.09376 47.82592 34.81088 79.36512a61.28128 61.28128 0 0 1-22.5792 28.39552l-307.23584 209.4592a101.9648 101.9648 0 0 1-100.87936 8.0128l-354.24256-166.77888c-30.60224-14.40768-43.74016-50.9184-29.34784-81.54624a61.2608 61.2608 0 0 1 27.136-28.27776l132.84864-69.23264a20.39296 20.39296 0 0 1 18.10944-0.36352l222.8736 104.92416a61.17888 61.17888 0 0 0 60.52352-4.80256l180.70528-123.20256a20.39296 20.39296 0 0 1 18.90304-2.1504z m-42.92608-177.19808l-133.70368 91.15648a101.9648 101.9648 0 0 1-100.87936 8.00768L314.17856 432.40448l-165.07904 86.02112a20.43904 20.43904 0 0 0 0.73728 36.608l354.24256 166.77888a61.17888 61.17888 0 0 0 60.52864-4.80256l307.23584-209.4592a20.43392 20.43392 0 0 0-4.07552-35.92192L721.29024 414.464z m4.8128-41.97376l156.4928 61.06624c31.50336 12.29312 47.08864 47.82592 34.80576 79.36512a61.28128 61.28128 0 0 1-22.5792 28.39552l-307.23584 209.4592a101.9648 101.9648 0 0 1-100.87936 8.0128l-354.24256-166.77888c-30.60224-14.40768-43.74016-50.9184-29.34784-81.54624a61.2608 61.2608 0 0 1 27.136-28.27776l174.04416-90.69568a20.39296 20.39296 0 0 1 18.10944-0.36864l181.67296 85.53472a61.17888 61.17888 0 0 0 60.52864-4.80768l142.592-97.21344a20.39296 20.39296 0 0 1 18.89792-2.1504zM483.54304 98.98496L149.0944 273.26976a20.43904 20.43904 0 0 0 0.73728 36.608l354.24256 166.77888a61.17888 61.17888 0 0 0 60.52864-4.80768l307.23584-209.4592a20.43392 20.43392 0 0 0-4.07552-35.92192l-333.70624-130.22208a61.17376 61.17376 0 0 0-50.51392 2.7392z m399.04768 89.41568c31.50336 12.29312 47.08864 47.82592 34.80576 79.36a61.28128 61.28128 0 0 1-22.5792 28.39552l-307.23584 209.46432a101.9648 101.9648 0 0 1-100.87936 8.00768L132.46464 346.84928c-30.60224-14.40256-43.74016-50.91328-29.34784-81.54624a61.2608 61.2608 0 0 1 27.136-28.27776l334.44352-174.2848a101.95968 101.95968 0 0 1 84.19328-4.56192l333.70624 130.22208z" p-id="2684" fill="#bfbfbf"></path></svg>